<?xml version="1.0" encoding="UTF-8"?>
<svg id="Layer_1" data-name="Layer 1" xmlns="http://www.w3.org/2000/svg" viewBox="0 0 1083.17 137.58">
  <defs>
    <style>
      .cls-1 {
        fill: #231f20;
      }

      .cls-2 {
        fill: #f05a28;
      }

      .cls-3 {
        fill: #a6a8ab;
      }
    </style>
  </defs>
  <g>
    <path class="cls-1" d="M171.67,40.11h-32.06l-7.03,15.56h-4.34L153.67.4h4.03l25.43,55.27h-4.34l-7.11-15.56ZM170.17,36.72l-14.53-31.9-14.45,31.9h28.98Z"/>
    <path class="cls-1" d="M258.14.4l-24.64,55.27h-4.03L204.84.4h4.42l22.35,50.06L253.95.4h4.19Z"/>
    <path class="cls-1" d="M328.89,52.04v3.63h-38.14V.4h36.96v3.63h-32.93v21.79h29.45v3.55h-29.45v22.66h34.11Z"/>
    <path class="cls-1" d="M412.28.4v55.27h-3.32l-37.67-48.01v48.01h-4.03V.4h3.4l37.59,48.01V.4h4.03Z"/>
    <path class="cls-1" d="M465.82,4.03h-19.9V.4h43.83v3.63h-19.9v51.64h-4.03V4.03Z"/>
    <path class="cls-1" d="M517.3,28.03c0-16.03,12.24-28.03,28.74-28.03s28.74,11.92,28.74,28.03-12.32,28.03-28.74,28.03-28.74-12-28.74-28.03ZM570.68,28.03c0-13.98-10.58-24.32-24.64-24.32s-24.72,10.34-24.72,24.32,10.58,24.32,24.72,24.32,24.64-10.34,24.64-24.32Z"/>
    <path class="cls-1" d="M606.85,48.56l1.82-3c3.79,3.95,10.82,6.95,18.24,6.95,11.05,0,15.95-4.82,15.95-10.82,0-16.58-34.51-6.63-34.51-27.01,0-7.82,6-14.69,19.58-14.69,6.08,0,12.4,1.9,16.66,4.98l-1.5,3.24c-4.58-3.16-10.19-4.66-15.16-4.66-10.74,0-15.56,4.97-15.56,11.05,0,16.58,34.51,6.79,34.51,26.85,0,7.82-6.24,14.61-19.9,14.61-8.21,0-16.11-3.08-20.14-7.5Z"/>
    <path class="cls-2" d="M713.77,40.11c0,9.16-6.63,15.95-19.35,15.95-8.13,0-15.63-3-19.5-7.42l2.05-3.08c3.39,3.87,9.87,6.79,17.45,6.79,9.95,0,15.24-4.74,15.24-12.24s-5.05-12.24-16.11-12.24h-3.47v-2.92l16.35-20.93h-29.45V.4h34.67v2.84l-16.58,21.24c12.56.32,18.71,6.63,18.71,15.64Z"/>
    <path class="cls-2" d="M786.58,39.4c0,10.11-7.82,16.66-18.4,16.66-14.53,0-22.19-10.42-22.19-27.72,0-18.71,9.95-28.35,24.56-28.35,4.74,0,9.16.79,12.55,2.84l-1.66,3.24c-2.84-1.82-6.71-2.53-10.9-2.53-12.4,0-20.53,8.13-20.53,24.16,0,1.66.08,4.11.47,6.63,2.29-7.26,9.24-11.37,17.61-11.37,11.05,0,18.48,6.48,18.48,16.42ZM782.55,39.48c0-7.9-5.69-13.03-15-13.03s-15.32,5.76-15.32,13.19c0,6.47,5.45,12.95,15.79,12.95,8.61,0,14.53-5.13,14.53-13.11Z"/>
    <path class="cls-2" d="M817.22,28.03c0-17.29,8.92-28.03,21.64-28.03s21.64,10.74,21.64,28.03-8.92,28.03-21.64,28.03-21.64-10.74-21.64-28.03ZM856.46,28.03c0-15.4-7.19-24.32-17.61-24.32s-17.61,8.92-17.61,24.32,7.19,24.32,17.61,24.32,17.61-8.92,17.61-24.32Z"/>
    <path class="cls-2" d="M893.1,12.32c0-6.87,5.45-12.24,12.32-12.24s12.24,5.37,12.24,12.24-5.45,12.24-12.24,12.24-12.32-5.45-12.32-12.24ZM915.05,12.32c0-5.45-4.18-9.71-9.63-9.71s-9.63,4.26-9.63,9.71,4.18,9.71,9.63,9.71,9.63-4.34,9.63-9.71Z"/>
  </g>
  <g>
    <path class="cls-3" d="M0,129.96l1.22-.62c.54,1.6,2.08,2.88,4.24,2.88s3.74-1.3,3.74-3.28c0-1.8-1.3-3.18-4.06-3.18h-1.54v-1.18h1.66c2.3,0,3.48-1.36,3.48-3.02,0-1.86-1.5-3-3.5-3-1.88,0-3.36,1.08-3.66,3.04l-1.26-.26c.34-2.48,2.4-4.08,5.06-4.08s4.84,1.52,4.84,4.08c0,1.8-1.12,3.28-2.7,3.74v.02c1.84.36,3.16,1.68,3.16,3.74,0,2.5-1.92,4.68-5.22,4.68-2.64,0-4.8-1.4-5.46-3.56Z"/>
    <path class="cls-3" d="M21.04,126.19c0-5.28,2.98-8.94,7.14-8.94,1,0,2.34.22,3.48,1.14l-.9,1.02c-.84-.64-1.78-.88-2.78-.88-3.12,0-5.48,2.84-5.5,7.4h.04c.6-1.7,2.48-2.86,4.48-2.86,2.7,0,5.16,2.08,5.16,5.18s-2.34,5.26-5.44,5.26c-3.38,0-5.68-2.7-5.68-7.32ZM26.74,132.24c2.12,0,3.94-1.62,3.94-4s-1.8-3.98-3.92-3.98c-2.26,0-3.94,1.84-3.94,4.04s1.82,3.94,3.92,3.94Z"/>
    <path class="cls-3" d="M42.32,125.41c0-4.8,2.36-8.16,5.84-8.16s5.8,3.36,5.8,8.16-2.36,8.1-5.8,8.1-5.84-3.32-5.84-8.1ZM48.16,132.18c2.54,0,4.26-2.66,4.26-6.76s-1.72-6.82-4.26-6.82-4.3,2.7-4.3,6.82,1.74,6.76,4.3,6.76Z"/>
    <path class="cls-3" d="M64.1,119.97c0-1.64,1.22-2.9,2.86-2.9s2.86,1.28,2.86,2.9-1.2,2.9-2.86,2.9-2.86-1.24-2.86-2.9ZM66.96,121.95c1.08,0,1.86-.86,1.86-1.98s-.78-1.98-1.86-1.98-1.84.86-1.84,1.98.78,1.98,1.84,1.98Z"/>
    <path class="cls-3" d="M94.14,117.57h1.74c2.06,4.54,4.14,9.1,6.22,13.64h.04l6.2-13.64h1.74v15.6h-1.44v-12.8h-.08l-5.78,12.8h-1.34l-5.78-12.8h-.08v12.8h-1.44v-15.6Z"/>
    <path class="cls-3" d="M121.8,129.05v-6.92h1.34v6.4c0,2.82,1.5,3.74,2.96,3.74,2.22,0,3.42-2.08,3.42-3.9v-6.24h1.34v7.58c0,1.86.14,2.6.36,3.46h-1.36c-.2-.8-.28-1.46-.28-2.04h-.04c-.82,1.66-2.18,2.38-3.78,2.38-1.96,0-3.96-1.12-3.96-4.46Z"/>
    <path class="cls-3" d="M142.44,117.17h1.34v16h-1.34v-16Z"/>
    <path class="cls-3" d="M156,129.86v-6.52h-2.2v-1.2h2.2v-3.28h1.34v3.28h3.38v1.2h-3.38v6.14c0,1.24,0,2.82,1.58,2.82.5,0,1.12-.16,1.8-.6v1.28c-.56.36-1.32.54-2.02.54-2.7,0-2.7-2.36-2.7-3.66Z"/>
    <path class="cls-3" d="M171.68,117.09c.62,0,1.1.5,1.1,1.1,0,.64-.48,1.14-1.1,1.14-.66,0-1.14-.5-1.14-1.14,0-.6.48-1.1,1.14-1.1ZM170.98,122.13h1.34v11.04h-1.34v-11.04Z"/>
    <path class="cls-3" d="M183.04,127.67c0-3.52,2.26-5.86,5.14-5.86,1.74,0,3.26.88,4.14,2.52h.04v-7.16h1.34v12.54c0,1.86.14,2.6.36,3.46h-1.36c-.2-.8-.28-1.48-.26-2.22h-.04c-.9,1.68-2.5,2.56-4.24,2.56-2.96,0-5.12-2.42-5.12-5.84ZM188.36,132.28c2.2,0,4.02-1.9,4.02-4.62s-1.82-4.6-4.02-4.6-3.9,1.96-3.9,4.62,1.66,4.6,3.9,4.6Z"/>
    <path class="cls-3" d="M205.98,117.09c.62,0,1.1.5,1.1,1.1,0,.64-.48,1.14-1.1,1.14-.66,0-1.14-.5-1.14-1.14,0-.6.48-1.1,1.14-1.1ZM205.28,122.13h1.34v11.04h-1.34v-11.04Z"/>
    <path class="cls-3" d="M217.06,130.42l1.26-.4c.56,1.4,1.94,2.34,3.3,2.34.92,0,2.5-.46,2.5-2,0-1.26-1.14-1.64-2.32-1.96l-1.06-.3c-1.04-.3-3.16-.96-3.16-3.2,0-2.1,1.92-3.08,3.64-3.08,1.9,0,3.42,1.2,3.92,2.7l-1.3.44c-.36-1.04-1.3-1.98-2.74-1.98-1.24,0-2.16.7-2.16,1.8,0,1.4,1.5,1.9,2.56,2.22l1.04.3c1.2.34,3,.88,3,2.88,0,1.88-1.6,3.34-3.94,3.34-2.18,0-3.94-1.24-4.54-3.1Z"/>
    <path class="cls-3" d="M235.22,127.67c0-3.5,2.28-5.86,5.5-5.86,1.96,0,3.88.9,4.76,3.14l-1.3.5c-.56-1.52-1.86-2.4-3.52-2.4-2.46,0-4,2-4,4.62,0,2.76,1.7,4.6,4.1,4.6,1.98,0,3.32-1.24,3.96-2.86l1.22.44c-.86,2.4-2.84,3.66-5.22,3.66-3.22,0-5.5-2.36-5.5-5.84Z"/>
    <path class="cls-3" d="M256.94,117.09c.62,0,1.1.5,1.1,1.1,0,.64-.48,1.14-1.1,1.14-.66,0-1.14-.5-1.14-1.14,0-.6.48-1.1,1.14-1.1ZM256.24,122.13h1.34v11.04h-1.34v-11.04Z"/>
    <path class="cls-3" d="M269.14,122.13h1.3v2.32h.04c.96-1.78,2.54-2.64,4.26-2.64,2.92,0,5.08,2.44,5.08,5.84s-2.26,5.86-5.12,5.86c-1.86,0-3.4-.98-4.22-2.58v6.64h-1.34v-15.44ZM274.48,132.28c2.26,0,3.9-1.96,3.9-4.62s-1.66-4.6-3.9-4.6-4,1.88-4,4.62,1.82,4.6,4,4.6Z"/>
    <path class="cls-3" d="M290.52,117.17h1.34v16h-1.34v-16Z"/>
    <path class="cls-3" d="M304.12,117.09c.62,0,1.1.5,1.1,1.1,0,.64-.48,1.14-1.1,1.14-.66,0-1.14-.5-1.14-1.14,0-.6.48-1.1,1.14-1.1ZM303.42,122.13h1.34v11.04h-1.34v-11.04Z"/>
    <path class="cls-3" d="M316.32,122.13h1.3v2.12h.04c.88-1.72,2.32-2.44,3.9-2.44,1.96,0,4.02,1.1,4.02,4.44v6.92h-1.34v-6.32c0-2.76-1.42-3.8-3.04-3.8-2.26,0-3.54,2-3.54,3.96v6.16h-1.34v-11.04Z"/>
    <path class="cls-3" d="M336.14,130.64c0-2.08,1.88-2.94,3.98-3.38,2.04-.42,3.5-.46,3.5-1.88,0-1.24-1.1-2.4-2.8-2.4-1.48,0-2.56.9-3,2.32l-1.3-.46c.66-2.12,2.56-3.02,4.4-3.02,2,0,4.1,1.06,4.1,3.68v4.22c0,1.84.14,2.6.36,3.46h-1.36c-.2-.78-.26-1.44-.26-2.3h-.04c-.7,1.5-2.06,2.64-4.08,2.64-1.88,0-3.5-.94-3.5-2.88ZM339.88,132.42c2.32,0,3.76-2.18,3.76-3.66v-1.5c-.62.48-1.14.66-2.62.94-1.28.24-3.42.7-3.42,2.38,0,1.12.88,1.84,2.28,1.84Z"/>
    <path class="cls-3" d="M356.44,122.13h1.3v2.28h.08c.56-1.54,1.96-2.6,3.58-2.6.38,0,.86.06,1.26.22v1.46c-.4-.16-1.02-.26-1.36-.26-2.36,0-3.52,2.34-3.52,4.58v5.36h-1.34v-11.04Z"/>
    <path class="cls-3" d="M375.64,133.34l-4.46-11.2h1.46c1.26,3.1,2.42,6.22,3.68,9.44h.04c1.22-3.22,2.4-6.36,3.62-9.44h1.46l-6.18,15.44h-1.28l1.66-4.24Z"/>
    <path class="cls-3" d="M403.64,125.43c0-4.94,3.48-8.18,7.78-8.18,2.9,0,5.86,1.48,6.88,4.56l-1.3.52c-.94-2.38-3.12-3.74-5.56-3.74-3.38,0-6.28,2.56-6.28,6.86,0,4.56,3.26,6.72,6.5,6.72s5.24-2.16,5.96-4.72l1.28.46c-.98,3.2-3.44,5.6-7.38,5.6-4.62,0-7.88-3.32-7.88-8.08Z"/>
    <path class="cls-3" d="M428.3,127.67c0-3.44,2.28-5.86,5.54-5.86s5.5,2.42,5.5,5.86-2.26,5.84-5.5,5.84-5.54-2.4-5.54-5.84ZM433.84,132.28c2.42,0,4.08-1.9,4.08-4.6s-1.66-4.62-4.08-4.62-4.1,1.92-4.1,4.62,1.68,4.6,4.1,4.6Z"/>
    <path class="cls-3" d="M450.06,122.13h1.3v2.12h.04c.86-1.72,2.32-2.44,3.84-2.44s3.1.66,3.64,2.72h.04c1.06-2.04,2.5-2.72,3.98-2.72,1.88,0,3.94,1.12,3.94,4.44v6.92h-1.34v-6.32c0-2.78-1.4-3.8-2.92-3.8-2.16,0-3.46,2-3.46,3.96v6.16h-1.34v-6.32c0-2.78-1.4-3.8-2.92-3.8-2.16,0-3.46,2-3.46,3.96v6.16h-1.34v-11.04Z"/>
    <path class="cls-3" d="M478.24,122.13h1.3v2.12h.04c.86-1.72,2.32-2.44,3.84-2.44s3.1.66,3.64,2.72h.04c1.06-2.04,2.5-2.72,3.98-2.72,1.88,0,3.94,1.12,3.94,4.44v6.92h-1.34v-6.32c0-2.78-1.4-3.8-2.92-3.8-2.16,0-3.46,2-3.46,3.96v6.16h-1.34v-6.32c0-2.78-1.4-3.8-2.92-3.8-2.16,0-3.46,2-3.46,3.96v6.16h-1.34v-11.04Z"/>
    <path class="cls-3" d="M506.26,129.05v-6.92h1.34v6.4c0,2.82,1.5,3.74,2.96,3.74,2.22,0,3.42-2.08,3.42-3.9v-6.24h1.34v7.58c0,1.86.14,2.6.36,3.46h-1.36c-.2-.8-.28-1.46-.28-2.04h-.04c-.82,1.66-2.18,2.38-3.78,2.38-1.96,0-3.96-1.12-3.96-4.46Z"/>
    <path class="cls-3" d="M526.9,122.13h1.3v2.12h.04c.88-1.72,2.32-2.44,3.9-2.44,1.96,0,4.02,1.1,4.02,4.44v6.92h-1.34v-6.32c0-2.76-1.42-3.8-3.04-3.8-2.26,0-3.54,2-3.54,3.96v6.16h-1.34v-11.04Z"/>
    <path class="cls-3" d="M548.26,117.09c.62,0,1.1.5,1.1,1.1,0,.64-.48,1.14-1.1,1.14-.66,0-1.14-.5-1.14-1.14,0-.6.48-1.1,1.14-1.1ZM547.56,122.13h1.34v11.04h-1.34v-11.04Z"/>
    <path class="cls-3" d="M559.6,127.67c0-3.5,2.28-5.86,5.5-5.86,1.96,0,3.88.9,4.76,3.14l-1.3.5c-.56-1.52-1.86-2.4-3.52-2.4-2.46,0-4,2-4,4.62,0,2.76,1.7,4.6,4.1,4.6,1.98,0,3.32-1.24,3.96-2.86l1.22.44c-.86,2.4-2.84,3.66-5.22,3.66-3.22,0-5.5-2.36-5.5-5.84Z"/>
    <path class="cls-3" d="M579.78,130.64c0-2.08,1.88-2.94,3.98-3.38,2.04-.42,3.5-.46,3.5-1.88,0-1.24-1.1-2.4-2.8-2.4-1.48,0-2.56.9-3,2.32l-1.3-.46c.66-2.12,2.56-3.02,4.4-3.02,2,0,4.1,1.06,4.1,3.68v4.22c0,1.84.14,2.6.36,3.46h-1.36c-.2-.78-.26-1.44-.26-2.3h-.04c-.7,1.5-2.06,2.64-4.08,2.64-1.88,0-3.5-.94-3.5-2.88ZM583.52,132.42c2.32,0,3.76-2.18,3.76-3.66v-1.5c-.62.48-1.14.66-2.62.94-1.28.24-3.42.7-3.42,2.38,0,1.12.88,1.84,2.28,1.84Z"/>
    <path class="cls-3" d="M600.58,129.86v-6.52h-2.2v-1.2h2.2v-3.28h1.34v3.28h3.38v1.2h-3.38v6.14c0,1.24,0,2.82,1.58,2.82.5,0,1.12-.16,1.8-.6v1.28c-.56.36-1.32.54-2.02.54-2.7,0-2.7-2.36-2.7-3.66Z"/>
    <path class="cls-3" d="M616.26,117.09c.62,0,1.1.5,1.1,1.1,0,.64-.48,1.14-1.1,1.14-.66,0-1.14-.5-1.14-1.14,0-.6.48-1.1,1.14-1.1ZM615.56,122.13h1.34v11.04h-1.34v-11.04Z"/>
    <path class="cls-3" d="M627.6,127.67c0-3.44,2.28-5.86,5.54-5.86s5.5,2.42,5.5,5.86-2.26,5.84-5.5,5.84-5.54-2.4-5.54-5.84ZM633.14,132.28c2.42,0,4.08-1.9,4.08-4.6s-1.66-4.62-4.08-4.62-4.1,1.92-4.1,4.62,1.68,4.6,4.1,4.6Z"/>
    <path class="cls-3" d="M649.36,122.13h1.3v2.12h.04c.88-1.72,2.32-2.44,3.9-2.44,1.96,0,4.02,1.1,4.02,4.44v6.92h-1.34v-6.32c0-2.76-1.42-3.8-3.04-3.8-2.26,0-3.54,2-3.54,3.96v6.16h-1.34v-11.04Z"/>
    <path class="cls-3" d="M682.44,130.64c0-2.08,1.88-2.94,3.98-3.38,2.04-.42,3.5-.46,3.5-1.88,0-1.24-1.1-2.4-2.8-2.4-1.48,0-2.56.9-3,2.32l-1.3-.46c.66-2.12,2.56-3.02,4.4-3.02,2,0,4.1,1.06,4.1,3.68v4.22c0,1.84.14,2.6.36,3.46h-1.36c-.2-.78-.26-1.44-.26-2.3h-.04c-.7,1.5-2.06,2.64-4.08,2.64-1.88,0-3.5-.94-3.5-2.88ZM686.18,132.42c2.32,0,3.76-2.18,3.76-3.66v-1.5c-.62.48-1.14.66-2.62.94-1.28.24-3.42.7-3.42,2.38,0,1.12.88,1.84,2.28,1.84Z"/>
    <path class="cls-3" d="M702.74,122.13h1.3v2.12h.04c.88-1.72,2.32-2.44,3.9-2.44,1.96,0,4.02,1.1,4.02,4.44v6.92h-1.34v-6.32c0-2.76-1.42-3.8-3.04-3.8-2.26,0-3.54,2-3.54,3.96v6.16h-1.34v-11.04Z"/>
    <path class="cls-3" d="M722.56,127.67c0-3.52,2.26-5.86,5.14-5.86,1.74,0,3.26.88,4.14,2.52h.04v-7.16h1.34v12.54c0,1.86.14,2.6.36,3.46h-1.36c-.2-.8-.28-1.48-.26-2.22h-.04c-.9,1.68-2.5,2.56-4.24,2.56-2.96,0-5.12-2.42-5.12-5.84ZM727.88,132.28c2.2,0,4.02-1.9,4.02-4.62s-1.82-4.6-4.02-4.6-3.9,1.96-3.9,4.62,1.66,4.6,3.9,4.6Z"/>
    <path class="cls-3" d="M755.92,117.57h1.52c1.74,4.16,3.78,9.3,5.6,13.94h.04c1.84-4.64,3.9-9.78,5.54-13.94h1.52l-6.32,15.6h-1.58l-6.32-15.6Z"/>
    <path class="cls-3" d="M780.82,117.09c.62,0,1.1.5,1.1,1.1,0,.64-.48,1.14-1.1,1.14-.66,0-1.14-.5-1.14-1.14,0-.6.48-1.1,1.14-1.1ZM780.12,122.13h1.34v11.04h-1.34v-11.04Z"/>
    <path class="cls-3" d="M791.89,130.42l1.26-.4c.56,1.4,1.94,2.34,3.3,2.34.92,0,2.5-.46,2.5-2,0-1.26-1.14-1.64-2.32-1.96l-1.06-.3c-1.04-.3-3.16-.96-3.16-3.2,0-2.1,1.92-3.08,3.64-3.08,1.9,0,3.42,1.2,3.92,2.7l-1.3.44c-.36-1.04-1.3-1.98-2.74-1.98-1.24,0-2.16.7-2.16,1.8,0,1.4,1.5,1.9,2.56,2.22l1.04.3c1.2.34,3,.88,3,2.88,0,1.88-1.6,3.34-3.94,3.34-2.18,0-3.94-1.24-4.54-3.1Z"/>
    <path class="cls-3" d="M810.75,129.05v-6.92h1.34v6.4c0,2.82,1.5,3.74,2.96,3.74,2.22,0,3.42-2.08,3.42-3.9v-6.24h1.34v7.58c0,1.86.14,2.6.36,3.46h-1.36c-.2-.8-.28-1.46-.28-2.04h-.04c-.82,1.66-2.18,2.38-3.78,2.38-1.96,0-3.96-1.12-3.96-4.46Z"/>
    <path class="cls-3" d="M830.55,130.64c0-2.08,1.88-2.94,3.98-3.38,2.04-.42,3.5-.46,3.5-1.88,0-1.24-1.1-2.4-2.8-2.4-1.48,0-2.56.9-3,2.32l-1.3-.46c.66-2.12,2.56-3.02,4.4-3.02,2,0,4.1,1.06,4.1,3.68v4.22c0,1.84.14,2.6.36,3.46h-1.36c-.2-.78-.26-1.44-.26-2.3h-.04c-.7,1.5-2.06,2.64-4.08,2.64-1.88,0-3.5-.94-3.5-2.88ZM834.29,132.42c2.32,0,3.76-2.18,3.76-3.66v-1.5c-.62.48-1.14.66-2.62.94-1.28.24-3.42.7-3.42,2.38,0,1.12.88,1.84,2.28,1.84Z"/>
    <path class="cls-3" d="M850.85,117.17h1.34v16h-1.34v-16Z"/>
    <path class="cls-3" d="M881.2,117.57h1.58l6.32,15.6h-1.52c-.74-1.82-1.5-3.64-2.24-5.46h-6.76c-.74,1.82-1.46,3.64-2.18,5.46h-1.52l6.32-15.6ZM884.82,126.39c-1.04-2.56-2.06-5.2-2.82-7.18h-.04c-.54,1.38-1.74,4.34-2.86,7.18h5.72Z"/>
    <path class="cls-3" d="M899.09,122.13h1.3v2.28h.08c.56-1.54,1.96-2.6,3.58-2.6.38,0,.86.06,1.26.22v1.46c-.4-.16-1.02-.26-1.36-.26-2.36,0-3.52,2.34-3.52,4.58v5.36h-1.34v-11.04Z"/>
    <path class="cls-3" d="M916.05,129.86v-6.52h-2.2v-1.2h2.2v-3.28h1.34v3.28h3.38v1.2h-3.38v6.14c0,1.24,0,2.82,1.58,2.82.5,0,1.12-.16,1.8-.6v1.28c-.56.36-1.32.54-2.02.54-2.7,0-2.7-2.36-2.7-3.66Z"/>
    <path class="cls-3" d="M929.91,130.42l1.26-.4c.56,1.4,1.94,2.34,3.3,2.34.92,0,2.5-.46,2.5-2,0-1.26-1.14-1.64-2.32-1.96l-1.06-.3c-1.04-.3-3.16-.96-3.16-3.2,0-2.1,1.92-3.08,3.64-3.08,1.9,0,3.42,1.2,3.92,2.7l-1.3.44c-.36-1.04-1.3-1.98-2.74-1.98-1.24,0-2.16.7-2.16,1.8,0,1.4,1.5,1.9,2.56,2.22l1.04.3c1.2.34,3,.88,3,2.88,0,1.88-1.6,3.34-3.94,3.34-2.18,0-3.94-1.24-4.54-3.1Z"/>
    <path class="cls-3" d="M962.51,117.57h9.62v1.36h-8.18v5.72h7.78v1.32h-7.78v7.2h-1.44v-15.6Z"/>
    <path class="cls-3" d="M981.41,130.64c0-2.08,1.88-2.94,3.98-3.38,2.04-.42,3.5-.46,3.5-1.88,0-1.24-1.1-2.4-2.8-2.4-1.48,0-2.56.9-3,2.32l-1.3-.46c.66-2.12,2.56-3.02,4.4-3.02,2,0,4.1,1.06,4.1,3.68v4.22c0,1.84.14,2.6.36,3.46h-1.36c-.2-.78-.26-1.44-.26-2.3h-.04c-.7,1.5-2.06,2.64-4.08,2.64-1.88,0-3.5-.94-3.5-2.88ZM985.15,132.42c2.32,0,3.76-2.18,3.76-3.66v-1.5c-.62.48-1.14.66-2.62.94-1.28.24-3.42.7-3.42,2.38,0,1.12.88,1.84,2.28,1.84Z"/>
    <path class="cls-3" d="M1000.85,127.67c0-3.5,2.28-5.86,5.5-5.86,1.96,0,3.88.9,4.76,3.14l-1.3.5c-.56-1.52-1.86-2.4-3.52-2.4-2.46,0-4,2-4,4.62,0,2.76,1.7,4.6,4.1,4.6,1.98,0,3.32-1.24,3.96-2.86l1.22.44c-.86,2.4-2.84,3.66-5.22,3.66-3.22,0-5.5-2.36-5.5-5.84Z"/>
    <path class="cls-3" d="M1022.45,129.86v-6.52h-2.2v-1.2h2.2v-3.28h1.34v3.28h3.38v1.2h-3.38v6.14c0,1.24,0,2.82,1.58,2.82.5,0,1.12-.16,1.8-.6v1.28c-.56.36-1.32.54-2.02.54-2.7,0-2.7-2.36-2.7-3.66Z"/>
    <path class="cls-3" d="M1036.41,127.67c0-3.44,2.28-5.86,5.54-5.86s5.5,2.42,5.5,5.86-2.26,5.84-5.5,5.84-5.54-2.4-5.54-5.84ZM1041.95,132.28c2.42,0,4.08-1.9,4.08-4.6s-1.66-4.62-4.08-4.62-4.1,1.92-4.1,4.62,1.68,4.6,4.1,4.6Z"/>
    <path class="cls-3" d="M1058.17,122.13h1.3v2.28h.08c.56-1.54,1.96-2.6,3.58-2.6.38,0,.86.06,1.26.22v1.46c-.4-.16-1.02-.26-1.36-.26-2.36,0-3.52,2.34-3.52,4.58v5.36h-1.34v-11.04Z"/>
    <path class="cls-3" d="M1077.37,133.34l-4.46-11.2h1.46c1.26,3.1,2.42,6.22,3.68,9.44h.04c1.22-3.22,2.4-6.36,3.62-9.44h1.46l-6.18,15.44h-1.28l1.66-4.24Z"/>
  </g>
</svg>