<svg width="128" height="128" viewBox="0 0 128 128" fill="none" xmlns="http://www.w3.org/2000/svg">
<path d="M80.9725 78.3137L52.9131 16.5569L25.0082 78.3137H80.9725Z" fill="#F05A28"/>
<path d="M83.8692 84.8766H21.957L20.9628 87.0826C29.7875 106.542 49.4344 120 72.1824 120C81.21 120 89.7181 117.912 97.2423 114.174L83.8885 84.8766H83.8692Z" fill="#F05A28"/>
<path d="M46.2997 14.1205C28.2091 23.3115 16 41.9701 16 64C16 68.4414 16.5155 72.7574 17.4895 76.8932L46.2997 14.1205Z" fill="#F05A28"/>
<path d="M128 64C128 32.5686 103.511 8 72.1824 8C67.172 8 62.3272 8.6284 57.7232 9.81278L103.844 110.302C118.463 100.308 128 83.4706 128 64Z" fill="#F05A28"/>
<path fill-rule="evenodd" clip-rule="evenodd" d="M21.957 84.8766H83.8692H83.8885L97.2423 114.174C99.5389 113.033 101.744 111.738 103.844 110.302L57.7232 9.81278C53.7165 10.8435 49.8921 12.2953 46.2997 14.1205L17.4895 76.8932L0 115H8.38112L20.9628 87.0826L21.957 84.8766ZM52.9131 16.5569L80.9725 78.3137H25.0082L52.9131 16.5569Z" fill="white"/>
</svg>
