<svg width="790" height="57" viewBox="0 0 790 57" fill="none" xmlns="http://www.w3.org/2000/svg">
<path d="M43.43 40.12H11.37L4.34 55.68H0L25.43 0.410004H29.46L54.89 55.68H50.55L43.44 40.12H43.43ZM41.93 36.73L27.4 4.83L12.95 36.73H41.93Z" fill="white"/>
<path d="M129.9 0.410004L105.26 55.68H101.23L76.6 0.410004H81.02L103.37 50.47L125.71 0.410004H129.9Z" fill="white"/>
<path d="M200.65 52.05V55.68H162.51V0.410004H199.47V4.04H166.54V25.83H195.99V29.38H166.54V52.04H200.65V52.05Z" fill="white"/>
<path d="M284.04 0.410004V55.68H280.72L243.05 7.67V55.68H239.02V0.410004H242.42L280.01 48.42V0.410004H284.04Z" fill="white"/>
<path d="M337.58 4.04H317.68V0.410004H361.51V4.04H341.61V55.68H337.58V4.04Z" fill="white"/>
<path d="M389.06 28.04C389.06 12.01 401.3 0.00999451 417.8 0.00999451C434.3 0.00999451 446.54 11.93 446.54 28.04C446.54 44.15 434.22 56.07 417.8 56.07C401.38 56.07 389.06 44.07 389.06 28.04ZM442.44 28.04C442.44 14.06 431.86 3.71999 417.8 3.71999C403.74 3.71999 393.08 14.06 393.08 28.04C393.08 42.02 403.66 52.36 417.8 52.36C431.94 52.36 442.44 42.02 442.44 28.04Z" fill="white"/>
<path d="M478.61 48.57L480.43 45.57C484.22 49.52 491.25 52.52 498.67 52.52C509.72 52.52 514.62 47.7 514.62 41.7C514.62 25.12 480.11 35.07 480.11 14.69C480.11 6.87 486.11 0 499.69 0C505.77 0 512.09 1.9 516.35 4.98L514.85 8.22C510.27 5.06 504.66 3.56 499.69 3.56C488.95 3.56 484.13 8.53 484.13 14.61C484.13 31.19 518.64 21.4 518.64 41.46C518.64 49.28 512.4 56.07 498.74 56.07C490.53 56.07 482.63 52.99 478.6 48.57H478.61Z" fill="white"/>
<path d="M585.53 40.12C585.53 49.28 578.9 56.07 566.18 56.07C558.05 56.07 550.55 53.07 546.68 48.65L548.73 45.57C552.12 49.44 558.6 52.36 566.18 52.36C576.13 52.36 581.42 47.62 581.42 40.12C581.42 32.62 576.37 27.88 565.31 27.88H561.84V24.96L578.19 4.03H548.74V0.410004H583.41V3.25L566.83 24.49C579.39 24.81 585.54 31.12 585.54 40.13L585.53 40.12Z" fill="#F05A28"/>
<path d="M658.34 39.41C658.34 49.52 650.52 56.07 639.94 56.07C625.41 56.07 617.75 45.65 617.75 28.35C617.75 9.64 627.7 0 642.31 0C647.05 0 651.47 0.79 654.86 2.84L653.2 6.08C650.36 4.26 646.49 3.55 642.3 3.55C629.9 3.55 621.77 11.68 621.77 27.71C621.77 29.37 621.85 31.82 622.24 34.34C624.53 27.08 631.48 22.97 639.85 22.97C650.9 22.97 658.33 29.45 658.33 39.39L658.34 39.41ZM654.31 39.49C654.31 31.59 648.62 26.46 639.31 26.46C630 26.46 623.99 32.22 623.99 39.65C623.99 46.12 629.44 52.6 639.78 52.6C648.39 52.6 654.31 47.47 654.31 39.49Z" fill="#F05A28"/>
<path d="M688.98 28.04C688.98 10.75 697.9 0.00999451 710.62 0.00999451C723.34 0.00999451 732.26 10.75 732.26 28.04C732.26 45.33 723.34 56.07 710.62 56.07C697.9 56.07 688.98 45.33 688.98 28.04ZM728.22 28.04C728.22 12.64 721.03 3.71999 710.61 3.71999C700.19 3.71999 693 12.64 693 28.04C693 43.44 700.19 52.36 710.61 52.36C721.03 52.36 728.22 43.44 728.22 28.04Z" fill="#F05A28"/>
<path d="M764.86 12.33C764.86 5.46 770.31 0.0899963 777.18 0.0899963C784.05 0.0899963 789.42 5.46 789.42 12.33C789.42 19.2 783.97 24.57 777.18 24.57C770.39 24.57 764.86 19.12 764.86 12.33ZM786.81 12.33C786.81 6.88 782.63 2.62 777.18 2.62C771.73 2.62 767.55 6.88 767.55 12.33C767.55 17.78 771.73 22.04 777.18 22.04C782.63 22.04 786.81 17.7 786.81 12.33Z" fill="#F05A28"/>
</svg>
