<svg width="128" height="128" viewBox="0 0 128 128" fill="none" xmlns="http://www.w3.org/2000/svg">
<path d="M94.8692 92.8766H32.957L19.3811 123H11L60.1088 16H67.8912L117 123H108.619L94.8885 92.8766H94.8692ZM91.9725 86.3137L63.9131 24.5569L36.0082 86.3137H91.9725Z" fill="white"/>
<path d="M92 16.24C92 9.37 97.45 4 104.32 4C111.19 4 116.56 9.37 116.56 16.24C116.56 23.11 111.11 28.48 104.32 28.48C97.53 28.48 92 23.03 92 16.24ZM113.95 16.24C113.95 10.79 109.77 6.53 104.32 6.53C98.87 6.53 94.69 10.79 94.69 16.24C94.69 21.69 98.87 25.95 104.32 25.95C109.77 25.95 113.95 21.61 113.95 16.24Z" fill="#F05A28"/>
</svg>
